# xmcd
#
# Track frame offsets:
#	170
#	8497
#	17747
#	26585
#	42082
#	53642
#	68300
#	76562
#	90002
#	104545
#	115057
#	127310
#	140130
#	154055
#	164580
#	178572
#	187930
#	197052
#
# Disc length: 2786 seconds
#
# Revision: 1
# Processed by: cddbd v1.4PL0 Copyright (c) Steve Scherf et al.
# Submitted via: EasyCDDAExtractor 5.1.0
#
DISCID=d70ae012
DTITLE=Jean Pâques - Sentimental - Vol. 20
DYEAR=1900
DGENRE=Piano Bar
TTITLE0=O mein papa
TTITLE1=Comminciamo adamarci
TTITLE2=morgen
TTITLE3=Arrivederci
TTITLE4=When day is done
TTITLE5=Ce soir
TTITLE6=Je n'avais pas compris
TTITLE7=Il ne faut pas briser un rêve
TTITLE8=I'll dream of you
TTITLE9=oui, oui, oui
TTITLE10=How important can it be
TTITLE11=Je suis seule
TTITLE12=Tua
TTITLE13=En bandoulière
TTITLE14=Tant que je vivais seul
TTITLE15=Le plus joli rêve
TTITLE16=Ou vont les étoiles
TTITLE17=Sweet
EXTD=
EXTT0=
EXTT1=
EXTT2=
EXTT3=
EXTT4=
EXTT5=
EXTT6=
EXTT7=
EXTT8=
EXTT9=
EXTT10=
EXTT11=
EXTT12=
EXTT13=
EXTT14=
EXTT15=
EXTT16=
EXTT17=
PLAYORDER=
